<?xml version="1.0" encoding="UTF-8"?>
<svg xmlns="http://www.w3.org/2000/svg" xmlns:xlink="http://www.w3.org/1999/xlink" width="3337" height="1407" xml:space="preserve" overflow="hidden">
  <defs>
    <clipPath id="clip0">
      <rect x="515" y="534" width="3337" height="1407"></rect>
    </clipPath>
  </defs>
  <g clip-path="url(#clip0)" transform="translate(-515 -534)">
    <path d="M0 0 1600.74 0 1687.5 159.647 1600.74 319.293 0 319.293 86.7555 159.647Z" stroke="#FFFFFF" stroke-width="20.625" stroke-miterlimit="8" fill="#C1E5F5" fill-rule="evenodd" transform="matrix(-0.833669 -0.552264 -0.552264 0.833669 2977.64 1572.47)"></path>
    <path d="M3829.25 1110.61C3899.33 1486.54 3651.39 1848.1 3275.46 1918.18 3086.89 1953.34 2892.18 1908.69 2737.76 1794.88L2737.76 1794.88 2761.86 1607.37 2971.55 1571.27 2971.55 1571.27C3155.89 1669.03 3384.57 1598.85 3482.34 1414.52 3522.36 1339.05 3535.63 1252.24 3519.98 1168.26Z" stroke="#FFFFFF" stroke-width="20.625" stroke-miterlimit="8" fill="#FFD376" fill-rule="evenodd"></path>
    <path d="M2698.33 711.458C2988.86 462.8 3425.95 496.74 3674.61 787.265 3798.14 931.59 3856.94 1120.33 3837.25 1309.28L3837.25 1309.28 3666.89 1370.47 3526.29 1229.5 3526.29 1229.5C3521.87 1020.89 3349.18 855.36 3140.57 859.777 3053.25 861.626 2969.26 893.674 2902.9 950.47Z" stroke="#FFFFFF" stroke-width="20.625" stroke-miterlimit="8" fill="#FFB71B" fill-rule="evenodd"></path>
    <path d="M39.4744 461.963C166.747 101.356 562.252-87.7984 922.859 39.4746 1102 102.701 1247.29 236.751 1324.71 410.23L1324.71 410.231 1207.78 548.405 1015.53 496.623 1015.53 496.623C907.399 318.169 675.077 261.161 496.623 369.292 421.922 414.556 365.212 484.304 336.142 566.669Z" stroke="#FFFFFF" stroke-width="20.625" stroke-miterlimit="8" fill="#898A8D" fill-rule="evenodd" transform="matrix(0.866025 0.5 0.5 -0.866025 272.708 1490.94)"></path>
    <path d="M39.4744 461.963C166.747 101.356 562.252-87.7984 922.859 39.4746 1102 102.701 1247.29 236.751 1324.71 410.23L1324.71 410.231 1207.78 548.405 1015.53 496.623 1015.53 496.623C907.399 318.169 675.077 261.161 496.623 369.292 421.922 414.556 365.212 484.304 336.142 566.669Z" stroke="#FFFFFF" stroke-width="20.625" stroke-miterlimit="8" fill="#B8B8BA" fill-rule="evenodd" transform="matrix(-0.866025 0.5 0.5 0.866025 1472 291.649)"></path>
    <path d="M1394.5 1569.98 2729.14 685.851 2889.63 771.031 2905.47 952.036 1570.83 1836.17 1554.99 1655.16Z" stroke="#FFFFFF" stroke-width="20.625" stroke-miterlimit="8" fill="#C2F1C8" fill-rule="evenodd"></path>
    <text fill="#66676A" font-family="Aptos,Aptos_MSFontService,sans-serif" font-weight="700" font-size="248" transform="matrix(1 0 0 1 1093.28 1317)">CI</text>
    <text fill="#66676A" font-family="Aptos,Aptos_MSFontService,sans-serif" font-weight="700" font-size="248" transform="matrix(1 0 0 1 2971.8 1315)">CD</text>
    <path d="M0 0 803.206 0 889.961 159.647 803.206 319.293 0 319.293 86.7546 159.647Z" stroke="#FFFFFF" stroke-width="20.625" stroke-miterlimit="8" fill="#FFE2A3" fill-rule="evenodd" transform="matrix(-0.833669 -0.552264 -0.552264 0.833669 2977.64 1572.47)"></path>
    <text fill="#FFFFFF" font-family="Aptos,Aptos_MSFontService,sans-serif" font-weight="400" font-size="83" transform="matrix(0.833669 0.552264 -0.552264 0.833669 2432.84 1435)">MONITOR</text>
    <path d="M0 0 803.206 0 889.961 159.647 803.206 319.293 0 319.293 86.7546 159.647Z" stroke="#FFFFFF" stroke-width="20.625" stroke-miterlimit="8" fill="#CFD0D1" fill-rule="evenodd" transform="matrix(-0.833669 -0.552264 -0.552264 0.833669 2312.76 1132.02)"></path>
    <text fill="#FFFFFF" font-family="Aptos,Aptos_MSFontService,sans-serif" font-weight="400" font-size="83" transform="matrix(0.833669 0.552264 -0.552264 0.833669 1670.33 930)">PLAN</text>
    <path d="M1394.5 1569.98 2064.45 1126.17 2224.94 1211.35 2240.79 1392.36 1570.83 1836.17 1554.99 1655.16Z" stroke="#FFFFFF" stroke-width="20.625" stroke-miterlimit="8" fill="#66676A" fill-rule="evenodd"></path>
    <text fill="#FFFFFF" font-family="Aptos,Aptos_MSFontService,sans-serif" font-weight="400" font-size="83" transform="matrix(0.833669 -0.552264 0.552264 0.833669 1706.56 1587)">GENERATE</text>
    <path d="M2059.53 1129.43 2729.14 685.85 2889.63 771.032 2905.47 952.036 2235.86 1395.62 2220.02 1214.61Z" stroke="#FFFFFF" stroke-width="20.625" stroke-miterlimit="8" fill="#D39000" fill-rule="evenodd"></path>
    <text fill="#FFFFFF" font-family="Aptos,Aptos_MSFontService,sans-serif" font-weight="400" font-size="83" transform="matrix(0.833669 -0.552264 0.552264 0.833669 2398.4 1128)">RELEASE</text>
    <path d="M892.501 1618.32 920.956 1643.89 916.866 1648.44 905.351 1638.1 872.979 1674.12 867.583 1669.27 899.956 1633.25 888.411 1622.87Z" fill="#FFFFFF" fill-rule="evenodd"></path>
    <text fill="#000000" fill-opacity="0" font-family="Arial,Arial_MSFontService,sans-serif" font-size="55.7969" x="867.583" y="1667.14">T</text>
    <path d="M924.19 1646.38 951.949 1667.39 948.281 1672.24 926.338 1655.63 915.846 1669.49 936.043 1684.78 932.424 1689.56 912.226 1674.28 900.756 1689.43 922.698 1706.04 919.03 1710.89 891.27 1689.88Z" fill="#FFFFFF" fill-rule="evenodd"></path>
    <text fill="#000000" fill-opacity="0" font-family="Arial,Arial_MSFontService,sans-serif" font-size="64.5059" x="891.27" y="1702.82">E</text>
    <path d="M971.68 1679.02C974.661 1680.88 977.089 1683.06 978.964 1685.57 980.84 1688.07 981.917 1690.75 982.195 1693.6 982.473 1696.45 981.718 1699.3 979.931 1702.17L973.741 1698.31C975.394 1695.71 975.664 1693.13 974.551 1690.58 973.439 1688.02 971.45 1685.85 968.584 1684.06 965.626 1682.22 962.96 1681.37 960.584 1681.53 958.209 1681.69 956.314 1682.91 954.898 1685.17 954.055 1686.53 953.706 1687.88 953.852 1689.23 953.998 1690.58 954.708 1692.16 955.982 1693.97 957.255 1695.78 959.189 1698.05 961.784 1700.79 964.76 1703.98 967.023 1706.82 968.572 1709.32 970.121 1711.81 970.887 1714.25 970.87 1716.63 970.852 1719 969.971 1721.59 968.227 1724.39 966.369 1727.37 964.083 1729.37 961.371 1730.4 958.659 1731.43 955.711 1731.64 952.529 1731.03 949.346 1730.41 946.139 1729.1 942.906 1727.08 939.604 1725.02 936.938 1722.66 934.908 1719.99 932.878 1717.33 931.749 1714.43 931.522 1711.29 931.295 1708.16 932.254 1704.87 934.398 1701.43L940.623 1705.31C939.094 1707.77 938.426 1710.02 938.62 1712.09 938.814 1714.15 939.615 1716.02 941.023 1717.69 942.431 1719.37 944.189 1720.86 946.299 1722.18 948.247 1723.39 950.212 1724.21 952.193 1724.63 954.174 1725.06 956.014 1724.98 957.713 1724.4 959.412 1723.82 960.841 1722.6 961.999 1720.74 962.999 1719.14 963.443 1717.58 963.33 1716.08 963.216 1714.58 962.522 1712.89 961.247 1711.03 959.972 1709.17 958.092 1706.94 955.606 1704.34 952.693 1701.25 950.453 1698.46 948.885 1695.97 947.317 1693.48 946.496 1691.08 946.422 1688.77 946.348 1686.47 947.09 1684.06 948.648 1681.56 950.292 1678.93 952.294 1677.1 954.655 1676.07 957.015 1675.04 959.646 1674.78 962.547 1675.28 965.449 1675.79 968.493 1677.03 971.68 1679.02Z" fill="#FFFFFF" fill-rule="evenodd"></path>
    <text fill="#000000" fill-opacity="0" font-family="Arial,Arial_MSFontService,sans-serif" font-size="56.339" x="931.49" y="1724.33">S</text>
    <path d="M987.514 1689.73 1021.57 1707.16 1018.78 1712.61 1005 1705.55 982.929 1748.66 976.472 1745.36 998.542 1702.25 984.725 1695.17Z" fill="#FFFFFF" fill-rule="evenodd"></path>
    <text fill="#000000" fill-opacity="0" font-family="Arial,Arial_MSFontService,sans-serif" font-size="58.9357" x="976.472" y="1741.3">T</text>
    <path d="M830.773 856.638 836.716 851.307 869.865 861.422 863.141 827.599 868.933 822.402 905.362 863.006 900.022 867.796 870.492 834.881 876.658 865.726 873.099 868.92 842.847 859.597 872.42 892.56 867.201 897.242Z" fill="#FFFFFF" fill-rule="evenodd"></path>
    <text fill="#000000" fill-opacity="0" font-family="Arial,Arial_MSFontService,sans-serif" font-size="74.8398" x="830.773" y="887.887">M</text>
    <path d="M906.38 801.5C902.784 803.996 900.437 806.834 899.339 810.013 898.241 813.193 898.133 816.508 899.014 819.957 899.896 823.407 901.5 826.808 903.826 830.159 906.137 833.489 908.755 836.169 911.678 838.202 914.602 840.234 917.742 841.286 921.097 841.358 924.452 841.43 927.928 840.218 931.523 837.722 935.119 835.226 937.464 832.398 938.559 829.237 939.654 826.076 939.766 822.767 938.895 819.31 938.025 815.852 936.434 812.459 934.123 809.129 931.796 805.778 929.166 803.09 926.231 801.065 923.296 799.041 920.153 797.983 916.801 797.892 913.449 797.801 909.975 799.004 906.38 801.5ZM902.983 796.606C907.666 793.355 912.261 791.612 916.769 791.378 921.276 791.143 925.536 792.199 929.549 794.544 933.561 796.89 937.139 800.326 940.282 804.854 943.425 809.382 945.386 813.924 946.165 818.482 946.943 823.039 946.435 827.388 944.639 831.529 942.843 835.67 939.604 839.366 934.92 842.616 930.237 845.867 925.631 847.617 921.101 847.867 916.571 848.117 912.308 847.081 908.311 844.758 904.314 842.434 900.744 839.009 897.601 834.481 894.458 829.953 892.489 825.399 891.695 820.82 890.901 816.241 891.413 811.873 893.231 807.716 895.049 803.56 898.299 799.857 902.983 796.606Z" fill="#FFFFFF" fill-rule="evenodd"></path>
    <text fill="#000000" fill-opacity="0" font-family="Arial,Arial_MSFontService,sans-serif" font-size="56.558" x="891.333" y="840.834">O</text>
    <path d="M947.845 776.279 967.754 813.613 976.086 809.17C980.306 806.92 983.427 804.39 985.451 801.581 987.474 798.772 988.419 795.62 988.284 792.124 988.15 788.628 986.958 784.771 984.708 780.551 982.47 776.355 979.932 773.246 977.093 771.223 974.254 769.201 971.095 768.244 967.617 768.354 964.139 768.463 960.325 769.624 956.177 771.836ZM938.529 774.312 954.728 765.673C959.758 762.991 964.555 761.65 969.118 761.651 973.681 761.652 977.852 762.957 981.631 765.565 985.41 768.174 988.648 772.005 991.343 777.059 994.051 782.137 995.429 786.975 995.477 791.573 995.525 796.171 994.275 800.358 991.727 804.136 989.18 807.914 985.402 811.137 980.396 813.807L964.196 822.446Z" fill="#FFFFFF" fill-rule="evenodd"></path>
    <text fill="#000000" fill-opacity="0" font-family="Arial,Arial_MSFontService,sans-serif" font-size="60.7943" x="938.529" y="814.846">D</text>
    <path d="M993.027 746.651 1025.26 733.502 1027.56 739.131 1002.08 749.525 1008.65 765.623 1032.1 756.056 1034.36 761.609 1010.91 771.177 1018.09 788.776 1043.57 778.382 1045.87 784.011 1013.63 797.16Z" fill="#FFFFFF" fill-rule="evenodd"></path>
    <text fill="#000000" fill-opacity="0" font-family="Arial,Arial_MSFontService,sans-serif" font-size="63.6582" x="993.027" y="789.203">E</text>
    <path d="M1039.24 728.752 1046.21 726.593 1060.49 772.698 1084.84 765.153 1086.7 771.153 1055.38 780.857Z" fill="#FFFFFF" fill-rule="evenodd"></path>
    <text fill="#000000" fill-opacity="0" font-family="Arial,Arial_MSFontService,sans-serif" font-size="54.2648" x="1039.24" y="774.074">L</text>
    <path d="M3316.02 1734.56C3311.83 1735.81 3308.71 1737.77 3306.67 1740.45 3304.64 1743.13 3303.5 1746.24 3303.26 1749.79 3303.02 1753.35 3303.48 1757.08 3304.64 1760.99 3305.79 1764.87 3307.44 1768.24 3309.58 1771.08 3311.72 1773.93 3314.38 1775.91 3317.54 1777.03 3320.71 1778.14 3324.39 1778.08 3328.58 1776.83 3332.78 1775.58 3335.89 1773.63 3337.92 1770.97 3339.95 1768.31 3341.09 1765.2 3341.34 1761.65 3341.59 1758.09 3341.14 1754.37 3339.99 1750.48 3338.83 1746.57 3337.17 1743.2 3335.01 1740.36 3332.86 1737.52 3330.2 1735.53 3327.05 1734.39 3323.89 1733.26 3320.22 1733.32 3316.02 1734.56ZM3314.33 1728.85C3319.79 1727.23 3324.7 1727.01 3329.05 1728.2 3333.41 1729.38 3337.13 1731.72 3340.2 1735.2 3343.28 1738.68 3345.61 1743.06 3347.18 1748.35 3348.75 1753.63 3349.19 1758.56 3348.5 1763.13 3347.82 1767.7 3345.98 1771.68 3342.98 1775.05 3339.98 1778.42 3335.74 1780.92 3330.28 1782.54 3324.81 1784.17 3319.89 1784.39 3315.51 1783.21 3311.13 1782.03 3307.4 1779.71 3304.33 1776.26 3301.26 1772.8 3298.94 1768.43 3297.37 1763.15 3295.8 1757.86 3295.36 1752.92 3296.03 1748.32 3296.71 1743.73 3298.56 1739.74 3301.59 1736.36 3304.61 1732.98 3308.86 1730.48 3314.33 1728.85Z" fill="#FFFFFF" fill-rule="evenodd"></path>
    <text fill="#000000" fill-opacity="0" font-family="Arial,Arial_MSFontService,sans-serif" font-size="56.5076" x="3295.73" y="1776.89">O</text>
    <path d="M3353.34 1722.64 3361.39 1742.03 3372.32 1737.5C3375.36 1736.23 3377.51 1734.43 3378.74 1732.09 3379.98 1729.75 3379.94 1726.99 3378.63 1723.82 3377.22 1720.43 3375.23 1718.31 3372.66 1717.48 3370.09 1716.64 3367.29 1716.85 3364.28 1718.11ZM3344.31 1719.9 3362.5 1712.35C3365.62 1711.05 3368.67 1710.48 3371.66 1710.63 3374.65 1710.78 3377.34 1711.71 3379.75 1713.42 3382.16 1715.13 3384.05 1717.65 3385.44 1721 3386.8 1724.27 3387.21 1727.31 3386.68 1730.13 3386.16 1732.95 3384.89 1735.46 3382.87 1737.64 3380.85 1739.82 3378.28 1741.56 3375.16 1742.86L3363.7 1747.61 3371.95 1767.49 3365.21 1770.28Z" fill="#FFFFFF" fill-rule="evenodd"></path>
    <text fill="#000000" fill-opacity="0" font-family="Arial,Arial_MSFontService,sans-serif" font-size="59.6731" x="3344.31" y="1762.82">P</text>
    <path d="M3383.5 1703.13 3414.31 1686.92 3417.14 1692.3 3392.79 1705.11 3400.89 1720.5 3423.3 1708.7 3426.09 1714.01 3403.68 1725.81 3412.53 1742.63 3436.88 1729.81 3439.72 1735.19 3408.91 1751.4Z" fill="#FFFFFF" fill-rule="evenodd"></path>
    <text fill="#000000" fill-opacity="0" font-family="Arial,Arial_MSFontService,sans-serif" font-size="64.4862" x="3383.5" y="1743.34">E</text>
    <path d="M3428.92 1684.91 3439.46 1701.06 3449.85 1694.29C3451.52 1693.19 3452.83 1691.89 3453.78 1690.37 3454.72 1688.85 3455.2 1687.23 3455.23 1685.51 3455.25 1683.78 3454.7 1682.07 3453.6 1680.38 3451.93 1677.82 3449.88 1676.32 3447.44 1675.87 3445.01 1675.43 3442.35 1676.14 3439.48 1678.02ZM3419.49 1683.8 3436.77 1672.53C3439.42 1670.8 3442.09 1669.65 3444.8 1669.08 3447.51 1668.51 3450.09 1668.69 3452.55 1669.64 3455 1670.59 3457.16 1672.49 3459.02 1675.34 3460.91 1678.23 3461.71 1681.23 3461.42 1684.32 3461.13 1687.41 3459.66 1690.34 3457.01 1693.1 3458.89 1692.23 3460.67 1691.86 3462.34 1692 3464.01 1692.13 3465.69 1692.69 3467.37 1693.67 3469.06 1694.65 3470.88 1696.04 3472.82 1697.83L3483.27 1707.32 3477.03 1711.4 3467.57 1702.61C3465.89 1701.03 3464.31 1699.78 3462.82 1698.86 3461.34 1697.95 3459.85 1697.48 3458.36 1697.47 3456.87 1697.46 3455.25 1698.02 3453.51 1699.16L3442.78 1706.15 3455.4 1725.5 3449.29 1729.49Z" fill="#FFFFFF" fill-rule="evenodd"></path>
    <text fill="#000000" fill-opacity="0" font-family="Arial,Arial_MSFontService,sans-serif" font-size="60.7319" x="3419.49" y="1721.9">R</text>
    <path d="M3474.74 1653.82 3483.53 1679.9 3498.07 1668.37ZM3467.25 1650.5 3473.28 1645.72 3522.96 1675.94 3517.05 1680.62 3503.49 1671.88 3485.77 1685.93 3491.01 1701.27 3485.14 1705.93Z" fill="#FFFFFF" fill-rule="evenodd"></path>
    <text fill="#000000" fill-opacity="0" font-family="Arial,Arial_MSFontService,sans-serif" font-size="60.217" x="3467.25" y="1698.41">A</text>
    <path d="M3483.32 1637.76 3511.24 1611.6 3515.42 1616.07 3504.13 1626.66 3537.24 1662 3531.95 1666.96 3498.83 1631.62 3487.51 1642.23Z" fill="#FFFFFF" fill-rule="evenodd"></path>
    <text fill="#000000" fill-opacity="0" font-family="Arial,Arial_MSFontService,sans-serif" font-size="55.3513" x="3483.32" y="1660.04">T</text>
    <path d="M3513.4 1609.2 3536.75 1583.37 3541.26 1587.45 3522.81 1607.86 3535.7 1619.52 3552.69 1600.73 3557.14 1604.75 3540.15 1623.54 3554.25 1636.29 3572.71 1615.87 3577.22 1619.95 3553.87 1645.78Z" fill="#FFFFFF" fill-rule="evenodd"></path>
    <text fill="#000000" fill-opacity="0" font-family="Arial,Arial_MSFontService,sans-serif" font-size="62.405" x="3513.4" y="1637.97">E</text>
    <path d="M3337.4 728.794 3324.28 769.018 3333.26 771.947C3337.8 773.43 3341.79 773.928 3345.22 773.44 3348.64 772.953 3351.57 771.45 3354 768.931 3356.43 766.412 3358.38 762.879 3359.87 758.333 3361.34 753.812 3361.82 749.827 3361.31 746.379 3360.81 742.93 3359.31 739.99 3356.82 737.558 3354.33 735.126 3350.85 733.181 3346.38 731.723ZM3332.37 720.714 3349.82 726.408C3355.24 728.176 3359.53 730.705 3362.69 733.996 3365.85 737.287 3367.8 741.198 3368.54 745.73 3369.28 750.263 3368.76 755.251 3366.98 760.697 3365.2 766.168 3362.66 770.514 3359.38 773.734 3356.1 776.955 3352.21 778.956 3347.72 779.736 3343.23 780.517 3338.29 780.027 3332.9 778.267L3315.45 772.573Z" fill="#FFFFFF" fill-rule="evenodd"></path>
    <text fill="#000000" fill-opacity="0" font-family="Arial,Arial_MSFontService,sans-serif" font-size="59.3824" x="3315.45" y="772.673">D</text>
    <path d="M3390.01 740.795 3421.84 754.889 3419.38 760.448 3394.22 749.307 3387.18 765.205 3410.34 775.46 3407.91 780.944 3384.75 770.69 3377.06 788.07 3402.22 799.21 3399.76 804.769 3367.92 790.675Z" fill="#FFFFFF" fill-rule="evenodd"></path>
    <text fill="#000000" fill-opacity="0" font-family="Arial,Arial_MSFontService,sans-serif" font-size="63.9734" x="3367.92" y="796.772">E</text>
    <path d="M3438.63 770.474 3428.38 788.796 3438.71 794.572C3441.58 796.181 3444.33 796.747 3446.93 796.268 3449.53 795.79 3451.67 794.054 3453.35 791.059 3455.14 787.852 3455.57 784.981 3454.64 782.446 3453.7 779.911 3451.81 777.846 3448.95 776.25ZM3435.19 761.678 3452.38 771.292C3455.33 772.94 3457.66 774.984 3459.4 777.423 3461.13 779.862 3462.07 782.554 3462.22 785.5 3462.36 788.446 3461.55 791.499 3459.79 794.659 3458.06 797.748 3455.92 799.96 3453.38 801.294 3450.84 802.628 3448.09 803.177 3445.12 802.943 3442.16 802.709 3439.2 801.768 3436.26 800.12L3425.43 794.067 3414.93 812.849 3408.56 809.288Z" fill="#FFFFFF" fill-rule="evenodd"></path>
    <text fill="#000000" fill-opacity="0" font-family="Arial,Arial_MSFontService,sans-serif" font-size="51.1711" x="3408.56" y="806.453">P</text>
    <path d="M3479.46 787.541 3485.49 791.639 3458.38 831.57 3479.47 845.891 3475.94 851.088 3448.81 832.669Z" fill="#FFFFFF" fill-rule="evenodd"></path>
    <text fill="#000000" fill-opacity="0" font-family="Arial,Arial_MSFontService,sans-serif" font-size="63.5471" x="3448.81" y="843.145">L</text>
    <path d="M3529.51 831.074C3526.15 828.275 3522.79 826.77 3519.43 826.56 3516.07 826.351 3512.85 827.131 3509.76 828.901 3506.67 830.672 3503.82 833.125 3501.21 836.262 3498.62 839.377 3496.74 842.615 3495.56 845.975 3494.38 849.335 3494.2 852.642 3495.03 855.895 3495.85 859.147 3497.95 862.173 3501.31 864.972 3504.68 867.771 3508.03 869.277 3511.37 869.488 3514.71 869.7 3517.93 868.925 3521.03 867.163 3524.13 865.401 3526.97 862.962 3529.56 859.847 3532.17 856.71 3534.06 853.458 3535.23 850.089 3536.4 846.72 3536.58 843.409 3535.77 840.154 3534.96 836.9 3532.88 833.873 3529.51 831.074ZM3533.32 826.494C3537.71 830.14 3540.61 834.103 3542.04 838.385 3543.47 842.666 3543.59 847.053 3542.4 851.546 3541.21 856.039 3538.85 860.404 3535.33 864.642 3531.8 868.879 3527.95 871.981 3523.77 873.948 3519.58 875.915 3515.25 876.585 3510.78 875.96 3506.31 875.334 3501.89 873.198 3497.51 869.552 3493.12 865.907 3490.21 861.934 3488.76 857.636 3487.31 853.337 3487.17 848.952 3488.34 844.479 3489.51 840.007 3491.86 835.652 3495.39 831.415 3498.91 827.178 3502.77 824.065 3506.97 822.078 3511.18 820.09 3515.52 819.418 3520.01 820.061 3524.5 820.704 3528.94 822.848 3533.32 826.494Z" fill="#FFFFFF" fill-rule="evenodd"></path>
    <text fill="#000000" fill-opacity="0" font-family="Arial,Arial_MSFontService,sans-serif" font-size="56.361" x="3487.55" y="869.141">O</text>
    <path d="M3557.33 848.163 3562.94 853.899 3554.17 882.605 3583.01 874.41 3588.65 880.175 3552.09 889.746 3536.56 904.937 3531.4 899.664 3546.93 884.474Z" fill="#FFFFFF" fill-rule="evenodd"></path>
    <text fill="#000000" fill-opacity="0" font-family="Arial,Arial_MSFontService,sans-serif" font-size="56.774" x="3531.4" y="897.84">Y</text>
  </g>
</svg>
